<svg width="43" height="43" viewBox="0 0 43 43" fill="none" xmlns="http://www.w3.org/2000/svg">
    <path d="M32.9847 32.4112L27.9322 37.4637M32.9847 37.4637L27.9322 32.4112M21.5001 39.0762C18.2393 39.0762 14.9963 38.2521 12.5238 36.6037C8.18801 33.7012 8.18801 28.9712 12.5238 26.0867C17.4509 22.79 25.5313 22.79 30.4584 26.0867M21.7868 19.4754C21.6076 19.4575 21.3926 19.4575 21.1955 19.4754C19.139 19.4056 17.1905 18.5381 15.7625 17.0566C14.3345 15.5751 13.5393 13.596 13.5451 11.5383C13.5451 7.14874 17.0926 3.58332 21.5001 3.58332C22.5436 3.5645 23.5806 3.75139 24.5518 4.13333C25.5231 4.51527 26.4096 5.08477 27.1608 5.80931C27.9119 6.53386 28.5131 7.39927 28.9298 8.35612C29.3465 9.31298 29.5706 10.3425 29.5895 11.386C29.6083 12.4295 29.4214 13.4665 29.0395 14.4378C28.6575 15.409 28.088 16.2955 27.3635 17.0467C26.6389 17.7979 25.7735 18.399 24.8167 18.8157C23.8598 19.2324 22.8303 19.4566 21.7868 19.4754V19.4754Z" stroke="black" stroke-width="1.5" stroke-linecap="round" stroke-linejoin="round"/>
</svg>
