<svg width="43" height="43" viewBox="0 0 43 43" fill="none" xmlns="http://www.w3.org/2000/svg">
    <path d="M3.58325 39.4166H39.4166" stroke="black" stroke-width="1.5" stroke-miterlimit="10" stroke-linecap="round" stroke-linejoin="round"/>
    <path d="M5.2854 39.4167L5.37498 17.863C5.37498 16.7701 5.89457 15.7309 6.75457 15.0501L19.2962 5.28548C19.9271 4.79733 20.7023 4.53247 21.5 4.53247C22.2977 4.53247 23.0728 4.79733 23.7037 5.28548L36.2454 15.0321C37.1233 15.713 37.625 16.7521 37.625 17.863V39.4167" stroke="black" stroke-width="1.5" stroke-miterlimit="10" stroke-linejoin="round"/>
    <path d="M23.2916 30.4584H19.7083C18.2212 30.4584 17.0208 31.6588 17.0208 33.1459V39.4167H25.9791V33.1459C25.9791 31.6588 24.7787 30.4584 23.2916 30.4584ZM17.0208 24.6355H13.4374C12.452 24.6355 11.6458 23.8292 11.6458 22.8438V20.1563C11.6458 19.1709 12.452 18.3646 13.4374 18.3646H17.0208C18.0062 18.3646 18.8124 19.1709 18.8124 20.1563V22.8438C18.8124 23.8292 18.0062 24.6355 17.0208 24.6355ZM29.5624 24.6355H25.9791C24.9937 24.6355 24.1874 23.8292 24.1874 22.8438V20.1563C24.1874 19.1709 24.9937 18.3646 25.9791 18.3646H29.5624C30.5478 18.3646 31.3541 19.1709 31.3541 20.1563V22.8438C31.3541 23.8292 30.5478 24.6355 29.5624 24.6355Z" stroke="black" stroke-width="1.5" stroke-miterlimit="10" stroke-linejoin="round"/>
    <path d="M34.0416 12.5416L33.9878 7.16663H26.1045" stroke="black" stroke-width="1.5" stroke-miterlimit="10" stroke-linecap="round" stroke-linejoin="round"/>
</svg>