<svg width="43" height="43" viewBox="0 0 43 43" fill="none" xmlns="http://www.w3.org/2000/svg">
    <path d="M12.3445 31.3362L16.4653 35.457M35.457 26.7495C33.7074 28.4947 31.5145 29.7291 29.1149 30.3196C26.7153 30.91 24.2 30.834 21.8403 30.0999L13.4016 38.5207C12.7924 39.1478 11.592 39.5241 10.732 39.3987L6.82617 38.8612C5.53617 38.682 4.33575 37.4637 4.13867 36.1737L3.60117 32.2678C3.47575 31.4078 3.88783 30.2074 4.47908 29.5982L12.8999 21.1774C11.4666 16.5191 12.5774 11.2337 16.2683 7.56074C21.5537 2.27533 30.1358 2.27533 35.4391 7.56074C40.7424 12.8462 40.7424 21.4641 35.457 26.7495V26.7495Z" stroke="black" stroke-width="1.5" stroke-miterlimit="10" stroke-linecap="round" stroke-linejoin="round"/>
    <path d="M25.9792 19.7085C26.692 19.7085 27.3756 19.4253 27.8796 18.9213C28.3836 18.4173 28.6667 17.7338 28.6667 17.021C28.6667 16.3082 28.3836 15.6247 27.8796 15.1206C27.3756 14.6166 26.692 14.3335 25.9792 14.3335C25.2665 14.3335 24.5829 14.6166 24.0789 15.1206C23.5749 15.6247 23.2917 16.3082 23.2917 17.021C23.2917 17.7338 23.5749 18.4173 24.0789 18.9213C24.5829 19.4253 25.2665 19.7085 25.9792 19.7085Z" stroke="black" stroke-width="1.5" stroke-linecap="round" stroke-linejoin="round"/>
</svg>