<svg width="45" height="45" viewBox="0 0 45 45" fill="none" xmlns="http://www.w3.org/2000/svg">
    <g clip-path="url(#clip0_413_976)">
        <path d="M31.6875 41.25H13.3125C10.125 41.25 7.5 38.6437 7.5 35.4375V9.5625C7.5 6.375 10.1062 3.75 13.3125 3.75H31.6875C34.875 3.75 37.5 6.35625 37.5 9.5625V35.4375C37.5 38.6437 34.8937 41.25 31.6875 41.25Z" stroke="#F5F5F5" stroke-width="1.5" stroke-linecap="round" stroke-linejoin="round"/>
        <path d="M34.6875 24.375H10.3125C8.75625 24.375 7.5 23.1187 7.5 21.5625V17.8125C7.5 16.2563 8.75625 15 10.3125 15H34.6875C36.2437 15 37.5 16.2563 37.5 17.8125V21.5625C37.5 23.1187 36.2437 24.375 34.6875 24.375Z" stroke="#F5F5F5" stroke-width="1.5" stroke-linecap="round" stroke-linejoin="round"/>
        <path d="M15.9282 33.1875H15.9432M29.0532 33.1875H29.0701" stroke="#F5F5F5" stroke-width="2.5" stroke-linecap="round" stroke-linejoin="round"/>
        <path d="M17.8125 9.375H27.1875" stroke="#F5F5F5" stroke-width="1.5" stroke-linecap="round" stroke-linejoin="round"/>
        <line x1="30.8321" y1="41.4453" x2="34.8321" y2="47.4453" stroke="#F5F5F5" stroke-width="2"/>
        <line y1="-1" x2="7.2111" y2="-1" transform="matrix(-0.5547 0.83205 0.83205 0.5547 15 42)" stroke="#F5F5F5" stroke-width="2"/>
    </g>
    <defs>
        <clipPath id="clip0_413_976">
            <rect width="45" height="45" fill="white"/>
        </clipPath>
    </defs>
</svg>