<svg width="50" height="50" viewBox="0 0 56 56" fill="none" xmlns="http://www.w3.org/2000/svg">
    <rect x="0.75" y="0.75" width="48.5" height="48.5" rx="14.25" stroke="black" stroke-width="1.5"/>
    <path d="M10.9325 14.5166C12.0658 9.61492 19.4467 9.61492 20.5658 14.5166C21.2317 17.3924 19.4042 19.8291 17.8175 21.3449C16.6558 22.4499 14.8283 22.4357 13.6667 21.3449C12.0942 19.8291 10.2667 17.3924 10.9325 14.5166ZM29.3492 31.5166C30.4825 26.6149 37.9058 26.6149 39.0392 31.5166C39.705 34.3924 37.8775 36.8291 36.2767 38.3449C35.115 39.4499 33.2733 39.4358 32.1117 38.3449C30.5108 36.8291 28.6833 34.3924 29.3492 31.5166Z" stroke="black" stroke-width="1.5"/>
    <path d="M24.9999 15.0833H28.7966C31.4174 15.0833 32.6357 18.3274 30.6666 20.0558L19.3474 29.9583C17.3782 31.6724 18.5966 34.9166 21.2032 34.9166H24.9999" stroke="black" stroke-width="1.5" stroke-linecap="round" stroke-linejoin="round"/>
    <path d="M15.7717 15.7917H15.7887M34.1884 32.7917H34.2054" stroke="black" stroke-width="2" stroke-linecap="round" stroke-linejoin="round"/>
</svg>