<svg width="70" height="70" viewBox="0 0 70 70" fill="none" xmlns="http://www.w3.org/2000/svg">
    <path d="M6.03758 13.4167C8.37091 3.32498 23.5667 3.32498 25.8709 13.4167C27.2417 19.3375 23.4792 24.3542 20.2126 27.475C17.8209 29.75 14.0584 29.7208 11.6667 27.475C8.42925 24.3542 4.66675 19.3375 6.03758 13.4167ZM43.9542 48.4167C46.2876 38.325 61.5709 38.325 63.9042 48.4167C65.2751 54.3375 61.5126 59.3542 58.2167 62.475C55.8251 64.75 52.0334 64.7208 49.6417 62.475C46.3459 59.3542 42.5834 54.3375 43.9542 48.4167Z" stroke="black" stroke-width="1.5"/>
    <path d="M34.9999 14.5834H42.8166C48.2124 14.5834 50.7208 21.2625 46.6666 24.8209L23.3624 45.2084C19.3083 48.7375 21.8166 55.4167 27.1833 55.4167H34.9999" stroke="black" stroke-width="1.5" stroke-linecap="round" stroke-linejoin="round"/>
    <path d="M16.0007 16.0416H16.0357M53.9174 51.0416H53.9524" stroke="black" stroke-width="2" stroke-linecap="round" stroke-linejoin="round"/>
</svg>