<svg width="43" height="43" viewBox="0 0 43 43" fill="none" xmlns="http://www.w3.org/2000/svg">
    <path d="M3.70877 8.24166C5.1421 2.04249 14.4767 2.04249 15.8921 8.24166C16.7342 11.8787 14.4229 14.9604 12.4163 16.8775C10.9471 18.275 8.63585 18.2571 7.16668 16.8775C5.17793 14.9604 2.86668 11.8787 3.70877 8.24166ZM27.0004 29.7417C28.4338 23.5425 37.8221 23.5425 39.2554 29.7417C40.0975 33.3787 37.7863 36.4604 35.7617 38.3775C34.2925 39.775 31.9634 39.7571 30.4942 38.3775C28.4696 36.4604 26.1584 33.3787 27.0004 29.7417Z" stroke="black" stroke-width="1.5"/>
    <path d="M21.5 8.9585H26.3017C29.6163 8.9585 31.1571 13.0614 28.6667 15.2472L14.3513 27.771C11.8609 29.9389 13.4017 34.0418 16.6984 34.0418H21.5" stroke="black" stroke-width="1.5" stroke-linecap="round" stroke-linejoin="round"/>
    <path d="M9.8291 9.854H9.8506M33.1208 31.354H33.1423" stroke="black" stroke-width="2" stroke-linecap="round" stroke-linejoin="round"/>
</svg>