<svg width="70" height="70" viewBox="0 0 70 70" fill="none" xmlns="http://www.w3.org/2000/svg">
    <path d="M60.0541 64.1668C60.0541 52.8793 48.825 43.7502 35 43.7502C21.175 43.7502 9.9458 52.8793 9.9458 64.1668M35 35.0002C38.8677 35.0002 42.577 33.4637 45.3119 30.7288C48.0468 27.9939 49.5833 24.2846 49.5833 20.4168C49.5833 16.5491 48.0468 12.8398 45.3119 10.1049C42.577 7.36995 38.8677 5.8335 35 5.8335C31.1322 5.8335 27.4229 7.36995 24.688 10.1049C21.9531 12.8398 20.4166 16.5491 20.4166 20.4168C20.4166 24.2846 21.9531 27.9939 24.688 30.7288C27.4229 33.4637 31.1322 35.0002 35 35.0002V35.0002Z" stroke="black" stroke-width="1.5" stroke-linecap="round" stroke-linejoin="round"/>
</svg>