<svg width="50" height="50" viewBox="0 0 56 56" fill="none" xmlns="http://www.w3.org/2000/svg">
    <path d="M43.8383 52.2484C41.7116 52.8767 39.1983 53.1667 36.25 53.1667H21.75C18.8016 53.1667 16.2883 52.8767 14.1616 52.2484C14.6933 45.965 21.1458 41.0109 29 41.0109C36.8541 41.0109 43.3066 45.965 43.8383 52.2484V52.2484Z" stroke="black" stroke-width="1.5" stroke-linecap="round" stroke-linejoin="round"/>
    <path d="M36.2499 4.83337H21.7499C9.66658 4.83337 4.83325 9.66671 4.83325 21.75V36.25C4.83325 45.385 7.58825 50.3875 14.1616 52.2484C14.6933 45.965 21.1458 41.0109 28.9999 41.0109C36.8541 41.0109 43.3066 45.965 43.8382 52.2484C50.4116 50.3875 53.1666 45.385 53.1666 36.25V21.75C53.1666 9.66671 48.3332 4.83337 36.2499 4.83337ZM28.9999 34.2442C24.2149 34.2442 20.3483 30.3534 20.3483 25.5684C20.3483 20.7834 24.2149 16.9167 28.9999 16.9167C33.7849 16.9167 37.6516 20.7834 37.6516 25.5684C37.6516 30.3534 33.7849 34.2442 28.9999 34.2442Z" stroke="black" stroke-width="1.5" stroke-linecap="round" stroke-linejoin="round"/>
    <path d="M37.6517 25.5683C37.6517 30.3533 33.7851 34.2441 29.0001 34.2441C24.2151 34.2441 20.3484 30.3533 20.3484 25.5683C20.3484 20.7833 24.2151 16.9166 29.0001 16.9166C33.7851 16.9166 37.6517 20.7833 37.6517 25.5683Z" stroke="black" stroke-width="1.5" stroke-linecap="round" stroke-linejoin="round"/>
</svg>