<svg width="43" height="43" viewBox="0 0 43 43" fill="none" xmlns="http://www.w3.org/2000/svg">
    <path d="M30.4047 25.8717C32.8592 26.2838 35.5647 25.8538 37.4638 24.5817C39.9901 22.8975 39.9901 20.1384 37.4638 18.4542C35.5467 17.1821 32.8055 16.7521 30.3509 17.1821M12.5417 25.8717C10.0872 26.2838 7.38174 25.8538 5.48258 24.5817C2.95633 22.8975 2.95633 20.1384 5.48258 18.4542C7.39966 17.1821 10.1409 16.7521 12.5955 17.1821M32.2501 12.8284C32.1373 12.8104 32.0224 12.8104 31.9097 12.8284C30.714 12.7851 29.5819 12.2787 28.7528 11.4161C27.9236 10.5535 27.4623 9.40235 27.4663 8.20587C27.4663 5.64379 29.5267 3.58337 32.0888 3.58337C33.3148 3.58337 34.4905 4.07039 35.3574 4.93727C36.2243 5.80416 36.7113 6.97991 36.7113 8.20587C36.708 9.4032 36.2419 10.5529 35.4104 11.4144C34.5789 12.2759 33.4465 12.7826 32.2501 12.8284V12.8284ZM10.6963 12.8284C10.8038 12.8105 10.9292 12.8105 11.0367 12.8284C12.2324 12.7851 13.3645 12.2787 14.1937 11.4161C15.0228 10.5535 15.4841 9.40235 15.4801 8.20587C15.4801 5.64379 13.4197 3.58337 10.8576 3.58337C9.63162 3.58337 8.45586 4.07039 7.58898 4.93727C6.72209 5.80416 6.23508 6.97991 6.23508 8.20587C6.253 10.7142 8.22383 12.7388 10.6963 12.8284ZM21.5001 26.2121C21.3873 26.1942 21.2724 26.1942 21.1597 26.2121C19.964 26.1689 18.8319 25.6625 18.0028 24.7999C17.1736 23.9373 16.7123 22.7861 16.7163 21.5896C16.7163 19.0275 18.7767 16.9671 21.3388 16.9671C22.5648 16.9671 23.7405 17.4541 24.6074 18.321C25.4743 19.1879 25.9613 20.3637 25.9613 21.5896C25.9434 24.098 23.9726 26.1405 21.5001 26.2121ZM16.2863 31.8559C13.7601 33.54 13.7601 36.2992 16.2863 37.9834C19.153 39.9005 23.8472 39.9005 26.7138 37.9834C29.2401 36.2992 29.2401 33.54 26.7138 31.8559C23.8651 29.9567 19.153 29.9567 16.2863 31.8559Z" stroke="black" stroke-width="1.5" stroke-linecap="round" stroke-linejoin="round"/>
</svg>